<?xml version="1.0" encoding="iso-8859-1"?>
<!-- Generator: Adobe Illustrator 19.0.0, SVG Export Plug-In . SVG Version: 6.00 Build 0)  -->
<svg version="1.1" id="Capa_1" xmlns="http://www.w3.org/2000/svg" xmlns:xlink="http://www.w3.org/1999/xlink" x="0px" y="0px"
	 viewBox="0 0 512 512" style="enable-background:new 0 0 512 512;" xml:space="preserve">
<g>
	<g>
		<path d="M511.955,14.999C511.954,6.715,505.238,0,496.954,0L271,0.014v120.5h240.965L511.955,14.999z"/>
	</g>
</g>
<g>
	<g>
		<polygon points="511.978,271.014 271,271.014 271,361.514 511.987,361.514 		"/>
	</g>
</g>
<g>
	<g>
		<polygon points="511.968,150.514 271,150.514 271,241.014 511.977,241.014 		"/>
	</g>
</g>
<g>
	<g>
		<polygon points="150.5,0.022 150.5,512 241,512 241,0.016 		"/>
	</g>
</g>
<g>
	<g>
		<path d="M511.99,391.514H271V512h226c3.978,0,7.794-1.58,10.607-4.394c2.813-2.813,4.393-6.629,4.393-10.607L511.99,391.514z"/>
	</g>
</g>
<g>
	<g>
		<path d="M14.999,0.029C6.715,0.029,0,6.745,0,15.029V497c0,8.285,6.716,15,15,15h105.5V0.023L14.999,0.029z"/>
	</g>
</g>
<g>
</g>
<g>
</g>
<g>
</g>
<g>
</g>
<g>
</g>
<g>
</g>
<g>
</g>
<g>
</g>
<g>
</g>
<g>
</g>
<g>
</g>
<g>
</g>
<g>
</g>
<g>
</g>
<g>
</g>
</svg>
