<?xml version="1.0" encoding="UTF-8" standalone="no"?>
<!-- Generator: Adobe Illustrator 16.0.0, SVG Export Plug-In . SVG Version: 6.00 Build 0)  -->

<svg
   xmlns:dc="http://purl.org/dc/elements/1.1/"
   xmlns:cc="http://creativecommons.org/ns#"
   xmlns:rdf="http://www.w3.org/1999/02/22-rdf-syntax-ns#"
   xmlns:svg="http://www.w3.org/2000/svg"
   xmlns="http://www.w3.org/2000/svg"
   xmlns:sodipodi="http://sodipodi.sourceforge.net/DTD/sodipodi-0.dtd"
   xmlns:inkscape="http://www.inkscape.org/namespaces/inkscape"
   version="1.1"
   id="Capa_1"
   x="0px"
   y="0px"
   width="475.695px"
   height="475.696px"
   viewBox="0 0 475.695 475.696"
   style="enable-background:new 0 0 475.695 475.696;"
   xml:space="preserve"
   sodipodi:docname="004-cow-silhouette.svg"
   inkscape:version="0.92.1 r15371"><metadata
     id="metadata41"><rdf:RDF><cc:Work
         rdf:about=""><dc:format>image/svg+xml</dc:format><dc:type
           rdf:resource="http://purl.org/dc/dcmitype/StillImage" /></cc:Work></rdf:RDF></metadata><defs
     id="defs39" /><sodipodi:namedview
     pagecolor="#ffffff"
     bordercolor="#666666"
     borderopacity="1"
     objecttolerance="10"
     gridtolerance="10"
     guidetolerance="10"
     inkscape:pageopacity="0"
     inkscape:pageshadow="2"
     inkscape:window-width="1920"
     inkscape:window-height="1001"
     id="namedview37"
     showgrid="false"
     showguides="false"
     inkscape:zoom="0.9922303"
     inkscape:cx="27.565722"
     inkscape:cy="329.40442"
     inkscape:window-x="-9"
     inkscape:window-y="-9"
     inkscape:window-maximized="1"
     inkscape:current-layer="Capa_1" /><path
     d="M 435.01562 76.095703 L 408.18164 95.396484 L 374.69727 95.425781 L 354.19922 82.910156 L 346.85742 84.408203 L 346.96484 92.546875 L 360.17773 107.17969 L 358.43555 114.86719 L 202.9375 131.58984 L 41.869141 127.0918 L 24.511719 134.36719 L 11.726562 150.61328 L 5.1484375 188.61328 L 3.9863281 215.92969 L 0 241.4375 L 1.0957031 266.8418 L 5.5800781 267.75977 L 12.097656 260.58203 L 17.396484 236.74609 L 13.101562 203.67773 L 14.595703 203.45312 L 24.691406 253.79492 L 17.814453 297.48438 L 24.09375 384.68164 L 24.691406 394.33789 L 30.810547 399.55664 L 57.865234 399.59961 L 66.583984 396.96289 L 42.378906 357.54492 L 54.386719 307.48828 L 60.675781 307.5 L 82.619141 374.05273 L 93.929688 391.13867 L 99.509766 394.57422 L 129.375 394.5957 L 133.20703 389.80078 L 107.35352 373.91992 L 89.824219 319.93555 L 94.21875 311.17188 L 104.51562 312.12891 L 110.98047 327.95703 L 120.3457 312.52734 L 129.41992 328.02344 L 137.10547 311.19727 L 159.72852 293.80859 L 240.00781 286.11914 L 253.48242 302.59375 L 264.83789 383.12305 L 270.8125 394.69336 L 298.16602 394.68359 L 301.11523 390.34766 L 284.48828 367.20508 L 282.49023 323.14062 L 291.46875 328.12305 L 300.92578 357.39453 L 312.95312 395.40234 L 318.3457 399.58398 L 342.82031 399.59961 L 344.85156 394.07227 L 337.69727 387.44922 L 314.61914 342.34961 L 319.93945 295.08203 L 345.79883 275.95312 L 383.46875 205.98438 L 426.82617 185.96875 L 466.69727 181.42969 L 470.11523 177.72461 L 475.69531 161.99805 L 473.00586 155.49609 L 421.75391 102.02734 L 444.06055 87.800781 L 445.36328 76.712891 L 435.01562 76.095703 z M 147.86523 170.64648 A 69.223183 49.066563 0 0 1 217.08789 219.71289 A 69.223183 49.066563 0 0 1 147.86523 268.7793 A 69.223183 49.066563 0 0 1 78.640625 219.71289 A 69.223183 49.066563 0 0 1 94.435547 188.55469 C 94.63552 189.69951 95.44771 194.67031 95.113281 198.79492 C 94.735345 203.45614 91.459909 212.77825 94.357422 216.68359 C 97.254934 220.58894 100.02726 221.72365 104.5625 221.09375 C 109.09774 220.46386 121.33976 213.95699 126.12695 216.72852 C 130.40639 219.20609 136.10819 227.33682 137.32617 229.11328 C 137.0683 230.49713 136.67418 231.62223 135.23047 232.87891 C 127.73575 239.40265 111.34214 233.55292 109.87695 237.91797 C 108.41177 242.28301 124.60169 261.45283 143.45312 258.6543 C 162.30454 255.85574 171.25775 245.7465 174.01953 231.98633 C 176.51285 219.5637 172.99504 202.12065 169.86523 193.60352 A 3.5258845 9.9508299 54.524733 0 1 173.30078 189.64844 C 175.41687 184.92072 170.10936 186.91602 170.10938 186.91602 L 167.11133 188.53906 C 166.19872 187.53463 165.07204 186.65851 163.82227 185.9043 A 3.5258845 9.9508299 54.524733 0 1 166.17188 182.97461 C 166.06515 182.26233 165.52111 181.99556 164.88281 181.94141 C 163.81899 181.85115 162.49414 182.34961 162.49414 182.34961 L 159.48047 183.98047 C 155.71964 182.82694 151.56604 182.69325 148.21484 183.94531 C 147.20653 184.32207 146.2707 184.8253 145.44141 185.45898 C 144.99914 185.79693 144.58798 186.169 144.21094 186.58398 C 140.75598 190.3265 137.4301 194.43452 136.23633 198.97461 C 134.54752 199.13676 131.33182 199.8809 130.71875 203.2207 C 129.16581 211.68089 137.99228 218.47417 142.4668 212.96875 L 144.5625 210.91016 C 146.32134 209.94128 147.62421 210.4234 150.95703 209.9707 C 153.26085 209.65778 154.35515 210.38254 154.63477 210.42188 C 151.88076 211.44749 141.99812 216.72877 139.82227 220.91602 C 138.80356 222.87642 138.29298 224.42194 137.9707 225.74023 C 136.5504 223.85746 128.56333 213.4657 124.88281 213.4082 C 123.29015 212.80682 116.33282 213.89058 114.13672 215.10938 C 111.03236 216.83223 105.82138 219.26564 100.9082 218.25781 C 95.995032 217.24998 95.869621 212.90385 96.310547 210.19531 C 96.751473 207.48676 99.08156 197.34529 98.136719 193.37695 C 97.259452 189.69243 96.859639 187.06355 96.800781 186.67188 A 69.223183 49.066563 0 0 1 147.86523 170.64648 z M 153.79688 194.06836 C 155.05846 194.68631 155.50378 196.38559 154.75781 198.27148 C 153.87554 200.50086 151.67866 202.12818 149.8457 201.90625 C 148.48923 201.74168 147.71751 200.60951 147.76367 199.12891 C 147.99168 198.15613 148.69817 196.44827 150.97656 195.37109 C 152.47221 194.66397 153.2465 194.31336 153.79688 194.06836 z "
     id="polygon2" /><g
     id="g6" /><g
     id="g8" /><g
     id="g10" /><g
     id="g12" /><g
     id="g14" /><g
     id="g16" /><g
     id="g18" /><g
     id="g20" /><g
     id="g22" /><g
     id="g24" /><g
     id="g26" /><g
     id="g28" /><g
     id="g30" /><g
     id="g32" /><g
     id="g34" /></svg>